<svg width="34" height="33" viewBox="0 0 34 33" fill="none" xmlns="http://www.w3.org/2000/svg">
<rect x="26.7783" y="2.6425" width="5.01141" height="20.7731" rx="2.50571" transform="rotate(45 26.7783 2.6425)" fill="white" stroke="black"/>
<path d="M15.6738 1.65332C18.0049 1.65332 20.2168 2.1627 22.2051 3.0752C21.5855 4.08063 21.1176 5.16608 20.8115 6.2959L20.499 6.60938C19.0263 5.945 17.3937 5.57129 15.6738 5.57129C9.18394 5.57147 3.91896 10.8372 3.91895 17.3271C3.91907 23.817 9.18401 29.0828 15.6738 29.083C22.1638 29.083 27.4296 23.8171 27.4297 17.3271C27.4297 15.5867 27.0476 13.9356 26.3682 12.4492L26.4834 12.333C27.7067 12.0335 28.8816 11.5452 29.9648 10.8818C30.8529 12.8478 31.3486 15.0295 31.3486 17.3271C31.3485 25.9845 24.3312 33.001 15.6738 33.001C7.01658 33.0008 0.000128724 25.9844 0 17.3271C1.1953e-05 8.66979 7.01651 1.6535 15.6738 1.65332ZM15.6738 8.51074C16.56 8.51074 17.4157 8.64226 18.2227 8.88574L14.5488 12.5596C12.3856 13.0678 10.7764 15.0083 10.7764 17.3271C10.7765 20.0332 12.9678 22.2254 15.6738 22.2256C18.0275 22.2256 19.9909 20.5668 20.4629 18.3545L24.0977 14.7197C24.3526 15.5438 24.4912 16.4195 24.4912 17.3271C24.4911 22.1946 20.5413 26.1436 15.6738 26.1436C10.8065 26.1434 6.85755 22.1945 6.85742 17.3271C6.85743 12.4597 10.8065 8.51093 15.6738 8.51074Z" fill="white"/>
<path d="M22.0726 7.82674C21.7451 6.54738 22.117 5.19016 23.0508 4.25635L24.8479 2.45923C25.9803 1.32679 27.9082 1.77745 28.4212 3.29456C28.6369 3.9323 29.1376 4.433 29.7753 4.64867C31.2924 5.16173 31.7431 7.08956 30.6107 8.222L28.8135 10.0191C27.8797 10.9529 26.5225 11.3248 25.2432 10.9973L22.7188 10.3511L22.0726 7.82674Z" fill="white"/>
</svg>
