<svg width="40" height="40" viewBox="0 0 40 40" fill="none" xmlns="http://www.w3.org/2000/svg">
<mask id="mask0_969_244" style="mask-type:alpha" maskUnits="userSpaceOnUse" x="0" y="0" width="40" height="40">
<rect width="40" height="40" fill="#D9D9D9"/>
</mask>
<g mask="url(#mask0_969_244)">
<path d="M11.6 15.1999C11.6 13.9269 12.1057 12.706 13.0059 11.8058C13.9061 10.9056 15.127 10.3999 16.4 10.3999C17.673 10.3999 18.8939 10.9056 19.7941 11.8058C20.6943 12.706 21.2 13.9269 21.2 15.1999C21.2 16.4729 20.6943 17.6938 19.7941 18.594C18.8939 19.4942 17.673 19.9999 16.4 19.9999C15.127 19.9999 13.9061 19.4942 13.0059 18.594C12.1057 17.6938 11.6 16.4729 11.6 15.1999ZM8 28.4862C8 24.7924 10.9925 21.7999 14.6863 21.7999H18.1138C21.8075 21.7999 24.8 24.7924 24.8 28.4862C24.8 29.1012 24.3013 29.5999 23.6862 29.5999H9.11375C8.49875 29.5999 8 29.1012 8 28.4862ZM30.8488 29.5999H25.6813C25.8838 29.2474 26.0038 28.8387 26.0038 28.3999V28.0999C26.0038 25.8237 24.9875 23.7799 23.3863 22.4074C23.4762 22.4037 23.5625 22.3999 23.6525 22.3999H25.955C29.2925 22.3999 32 25.1074 32 28.4487C32 29.0862 31.4825 29.5999 30.8488 29.5999ZM24.2 19.9999C23.0375 19.9999 21.9875 19.5274 21.2263 18.7662C21.965 17.7687 22.4 16.5349 22.4 15.1999C22.4 14.1949 22.1525 13.2462 21.7138 12.4137C22.4113 11.9037 23.27 11.5999 24.2 11.5999C26.5213 11.5999 28.4 13.4787 28.4 15.7999C28.4 18.1212 26.5213 19.9999 24.2 19.9999Z" fill="white"/>
</g>
</svg>
