<svg width="46" height="46" viewBox="0 0 46 46" fill="none" xmlns="http://www.w3.org/2000/svg">
<mask id="mask0_969_222" style="mask-type:alpha" maskUnits="userSpaceOnUse" x="0" y="0" width="46" height="46">
<rect width="46" height="46" fill="#D9D9D9"/>
</mask>
<g mask="url(#mask0_969_222)">
<path d="M19.5829 13.6029C19.5829 12.188 20.7308 11.04 22.1458 11.04H23.8543C25.2692 11.04 26.4172 12.188 26.4172 13.6029V32.3972C26.4172 33.8121 25.2692 34.96 23.8543 34.96H22.1458C20.7308 34.96 19.5829 33.8121 19.5829 32.3972V13.6029ZM11.04 23.8543C11.04 22.4394 12.188 21.2915 13.6029 21.2915H15.3115C16.7264 21.2915 17.8743 22.4394 17.8743 23.8543V32.3972C17.8743 33.8121 16.7264 34.96 15.3115 34.96H13.6029C12.188 34.96 11.04 33.8121 11.04 32.3972V23.8543ZM30.6886 14.4572H32.3972C33.8121 14.4572 34.96 15.6051 34.96 17.02V32.3972C34.96 33.8121 33.8121 34.96 32.3972 34.96H30.6886C29.2737 34.96 28.1258 33.8121 28.1258 32.3972V17.02C28.1258 15.6051 29.2737 14.4572 30.6886 14.4572Z" fill="white"/>
</g>
</svg>
