<svg width="22" height="24" viewBox="0 0 22 24" fill="none" xmlns="http://www.w3.org/2000/svg">
<path d="M2.27112 0.675C2.23319 0.290625 1.90603 0 1.51724 0C1.12845 0 0.801293 0.290625 0.758621 0.670313L0.0900863 7.01719C0.0284484 7.29844 0 7.58437 0 7.87031C0 10.0219 1.66422 11.7891 3.7931 11.9813V22.5C3.7931 23.3297 4.47112 24 5.31034 24C6.14957 24 6.82759 23.3297 6.82759 22.5V11.9813C8.95647 11.7891 10.6207 10.0219 10.6207 7.87031C10.6207 7.58437 10.5922 7.29844 10.5306 7.01719L9.85733 0.670313C9.8194 0.290625 9.49224 0 9.10345 0C8.71465 0 8.3875 0.290625 8.34957 0.675L7.70474 7.02656C7.67629 7.29375 7.44871 7.5 7.17845 7.5C6.90345 7.5 6.67586 7.29375 6.64741 7.02188L6.06422 0.684375C6.03103 0.295312 5.70388 0 5.31034 0C4.91681 0 4.58966 0.295312 4.55647 0.684375L3.97328 7.02188C3.94957 7.29375 3.71724 7.5 3.44224 7.5C3.16724 7.5 2.93966 7.29375 2.91595 7.02656L2.27112 0.675ZM20.4828 0C19.7241 0 14.4138 1.5 14.4138 8.25V13.5C14.4138 15.1547 15.7746 16.5 17.4483 16.5H18.9655V22.5C18.9655 23.3297 19.6435 24 20.4828 24C21.322 24 22 23.3297 22 22.5V1.5C22 0.670312 21.322 0 20.4828 0Z" fill="white"/>
</svg>
