<svg width="1440" height="430" viewBox="0 0 1440 430" fill="none" xmlns="http://www.w3.org/2000/svg">
<mask id="mask0_976_257" style="mask-type:alpha" maskUnits="userSpaceOnUse" x="0" y="0" width="1440" height="430">
<rect width="1440" height="430" fill="#D9D9D9"/>
</mask>
<g mask="url(#mask0_976_257)">
<path d="M303.554 405.489C300.51 407.392 299.585 411.402 301.489 414.446C303.392 417.49 307.402 418.415 310.446 416.511L307 411L303.554 405.489ZM1319.22 114.615C1318.18 111.179 1314.55 109.238 1311.11 110.279L1255.13 127.248C1251.69 128.29 1249.75 131.919 1250.79 135.354C1251.84 138.79 1255.47 140.731 1258.9 139.689L1308.66 124.606L1323.75 174.37C1324.79 177.806 1328.42 179.747 1331.85 178.705C1335.29 177.664 1337.23 174.035 1336.19 170.599L1319.22 114.615ZM1144.07 399.963L1139.56 404.638L1144.07 399.963ZM927.172 207.461L931.933 211.886L927.172 207.461ZM944.299 206.999L939.783 211.674L944.299 206.999ZM729.516 405.391L725.932 410.814L729.516 405.391ZM744.924 403.55L740.163 399.125L744.924 403.55ZM521.957 276.591L518.511 271.08L521.957 276.591ZM307 411L310.446 416.511L525.403 282.102L521.957 276.591L518.511 271.08L303.554 405.489L307 411ZM534.937 276.756L531.352 282.178L725.932 410.814L729.516 405.391L733.101 399.969L538.522 271.333L534.937 276.756ZM744.924 403.55L749.685 407.976L931.933 211.886L927.172 207.461L922.411 203.035L740.163 399.125L744.924 403.55ZM944.299 206.999L939.783 211.674L1139.56 404.638L1144.07 399.963L1148.59 395.288L948.815 202.324L944.299 206.999ZM1162.99 396.991L1168.72 400.056L1318.73 119.565L1313 116.5L1307.27 113.435L1157.26 393.926L1162.99 396.991ZM1144.07 399.963L1139.56 404.638C1148.39 413.17 1162.93 410.886 1168.72 400.056L1162.99 396.991L1157.26 393.926C1155.54 397.145 1151.22 397.824 1148.59 395.288L1144.07 399.963ZM927.172 207.461L931.933 211.886C934.029 209.63 937.568 209.535 939.783 211.674L944.299 206.999L948.815 202.324C941.366 195.129 929.461 195.449 922.411 203.035L927.172 207.461ZM729.516 405.391L725.932 410.814C733.478 415.803 743.526 414.602 749.685 407.976L744.924 403.55L740.163 399.125C738.332 401.095 735.344 401.452 733.101 399.969L729.516 405.391ZM521.957 276.591L525.403 282.102C527.23 280.96 529.555 280.99 531.352 282.178L534.937 276.756L538.522 271.333C532.477 267.337 524.655 267.238 518.511 271.08L521.957 276.591Z" fill="#DB8854"/>
</g>
</svg>
