<svg width="20" height="30" viewBox="0 0 20 30" fill="none" xmlns="http://www.w3.org/2000/svg">
<path d="M13.0419 2.91667C13.0419 1.30729 11.678 0 9.99883 0C8.31971 0 6.95576 1.30729 6.95576 2.91667C6.95576 4.52604 8.31971 5.83333 9.99883 5.83333C11.678 5.83333 13.0419 4.52604 13.0419 2.91667ZM14.3461 13.9948L16.862 17.2448C17.4326 17.9844 18.5249 18.1406 19.2965 17.5885C20.0681 17.0365 20.2312 15.9948 19.6551 15.2552L15.8241 10.3073C14.4548 8.54167 12.2974 7.5 9.99883 7.5C7.70023 7.5 5.54291 8.54167 4.17353 10.3073L0.34252 15.2552C-0.228056 15.9948 -0.0704689 17.0365 0.701167 17.5885C1.4728 18.1406 2.55961 17.9844 3.13562 17.2448L5.65159 13.9948V28.3333C5.65159 29.2552 6.42866 30 7.39049 30C8.35231 30 9.12938 29.2552 9.12938 28.3333V20C9.12938 19.5417 9.52063 19.1667 9.99883 19.1667C10.477 19.1667 10.8683 19.5417 10.8683 20V28.3333C10.8683 29.2552 11.6453 30 12.6072 30C13.569 30 14.3461 29.2552 14.3461 28.3333V13.9948Z" fill="white"/>
</svg>
